<svg width="26" height="27" viewBox="0 0 26 27" fill="none" xmlns="http://www.w3.org/2000/svg">
<rect x="0.25" y="0.75" width="25.5" height="25.5" rx="12.75" fill="#03A928" fill-opacity="0.14" stroke="#03A928" stroke-width="0.5"/>
<path d="M11.7587 18.5707L11.7586 18.5707L8.92007 15.2835C8.5338 14.8363 8.84525 14.1289 9.44852 14.1289C10.1333 14.1289 10.6992 13.5729 10.7725 12.8601C10.8772 11.8414 11.1014 10.9189 11.5478 10.2051C12.0013 9.4801 12.6771 8.9824 13.6456 8.81357C14.171 8.72198 14.692 8.8253 15.1604 8.96791L15.2002 8.98017L15.2006 8.98027L15.0517 9.4576L15.0514 9.45749L15.0151 9.44634L11.7587 18.5707ZM11.7587 18.5707C12.0373 18.8933 12.5373 18.8928 12.8156 18.5707L12.8156 18.5707L15.6544 15.2835C15.6544 15.2835 15.6544 15.2835 15.6544 15.2835C16.04 14.8371 15.7304 14.1289 15.126 14.1289C14.3647 14.1289 13.7266 13.5011 13.667 12.7197C13.6548 12.5599 13.6421 12.4032 13.6296 12.2498C13.5971 11.8498 13.5664 11.4727 13.5523 11.1236C13.5326 10.6392 13.5466 10.2377 13.6225 9.93439C13.6972 9.63566 13.8213 9.47033 13.9967 9.39108C14.1857 9.30569 14.4981 9.28981 15.0147 9.44619L11.7587 18.5707Z" fill="#03A928" stroke="#03A928" stroke-width="0.5"/>
</svg>
